# xmcd CD database file
#
# Track frame offsets:
#	150
#	19357
#	38690
#	58710
#	81490
#	97780
#	108360
#	127642
#	143867
#	162547
#	207985
#
# Disc length: 3067 seconds
#
# Revision: 0
# Processed by: cddbd v1.5.1PL0 Copyright (c) Steve Scherf et al.
# Submitted via: CDex 1.51
#
DISCID=8f0bf90b
DTITLE=SEX - SEX
DYEAR=1991
DGENRE=Rock
TTITLE0=After the War
TTITLE1=Lay your hands on me
TTITLE2=This is heaven
TTITLE3=Siren
TTITLE4=Valentine
TTITLE5=Love chat
TTITLE6=We go
TTITLE7=Velvet dance
TTITLE8=I can fly
TTITLE9=After the War (re-mix)
TTITLE10=6/8 sex
EXTD=YEAR: 1991
EXTT0=
EXTT1=
EXTT2=
EXTT3=
EXTT4=
EXTT5=
EXTT6=
EXTT7=
EXTT8=
EXTT9=
EXTT10=
PLAYORDER=
